<?xml version="1.0" standalone="no"?>
<!DOCTYPE svg PUBLIC "-//W3C//DTD SVG 20010904//EN"
 "http://www.w3.org/TR/2001/REC-SVG-20010904/DTD/svg10.dtd">
<svg version="1.0" xmlns="http://www.w3.org/2000/svg"
 width="700.000000pt" height="700.000000pt" viewBox="0 0 700.000000 700.000000"
 preserveAspectRatio="xMidYMid meet">
<metadata>
Created by potrace 1.14, written by Peter Selinger 2001-2017
</metadata>
<g transform="translate(0.000000,700.000000) scale(0.100000,-0.100000)"
fill="#000000" stroke="none">
<path d="M3278 6996 c-1 -2 -39 -6 -83 -10 -569 -44 -1171 -258 -1660 -590
-103 -70 -87 -58 -230 -171 -415 -331 -787 -810 -990 -1275 -25 -58 -50 -114
-55 -125 -45 -93 -150 -427 -176 -560 -2 -11 -10 -54 -19 -95 -29 -147 -36
-194 -52 -370 -15 -160 -8 -606 11 -705 2 -11 7 -45 10 -75 20 -169 74 -408
137 -600 82 -250 191 -491 313 -694 36 -60 66 -111 66 -113 0 -2 4 -9 10 -16
5 -7 46 -64 91 -126 128 -182 235 -306 409 -476 115 -113 236 -216 355 -305
33 -25 62 -48 63 -52 2 -5 8 -8 13 -8 6 0 38 -19 72 -43 153 -107 400 -239
601 -321 60 -25 110 -47 112 -49 4 -4 -15 -50 -67 -164 -10 -23 -19 -44 -19
-47 0 -4 590 -6 1310 -6 721 0 1310 2 1310 4 0 2 -20 49 -45 106 -25 57 -44
104 -43 106 2 1 68 30 148 64 140 60 313 147 391 196 21 13 41 24 44 24 3 0
11 5 18 10 7 6 64 44 127 86 115 77 280 202 355 270 89 81 234 225 295 294 36
40 72 80 80 89 8 9 31 37 50 61 19 25 38 50 43 55 164 204 315 466 472 820 79
180 193 602 219 818 11 84 18 141 22 167 9 49 11 526 4 605 -16 168 -22 220
-25 225 -2 3 -6 30 -10 60 -3 30 -10 71 -15 90 -5 19 -12 51 -15 70 -13 77
-66 272 -106 390 -349 1041 -1163 1856 -2204 2208 -167 56 -419 119 -555 137
-19 3 -46 7 -60 10 -13 2 -54 7 -90 11 -36 3 -76 8 -90 11 -27 5 -536 14 -542
9z m467 -800 c69 -6 179 -21 305 -42 19 -3 80 -17 135 -30 471 -117 894 -335
1266 -654 145 -124 340 -332 467 -499 41 -53 192 -277 192 -284 0 -3 17 -34
38 -68 159 -265 317 -707 366 -1019 3 -19 10 -62 16 -94 32 -191 35 -679 6
-836 -3 -14 -7 -46 -10 -72 -3 -26 -8 -58 -11 -70 -2 -13 -7 -34 -9 -48 -3
-14 -8 -36 -11 -50 -3 -14 -7 -36 -10 -50 -17 -91 -92 -328 -151 -475 -27 -68
-140 -298 -187 -381 -47 -84 -182 -280 -260 -378 -72 -89 -321 -348 -402 -416
-103 -87 -291 -221 -420 -300 -81 -49 -354 -185 -359 -179 -2 2 -29 65 -61
139 -31 74 -62 149 -70 165 -20 44 -355 826 -365 851 -8 19 -1 24 78 54 409
153 784 457 1038 837 61 91 173 303 202 383 80 214 105 308 137 505 27 169 25
484 -4 652 -6 32 -13 72 -15 88 -31 185 -153 504 -263 690 -278 468 -728 819
-1255 979 -129 39 -122 37 -288 66 -205 36 -520 33 -720 -7 -41 -8 -86 -17
-100 -19 -264 -51 -641 -230 -870 -413 -112 -90 -236 -210 -321 -311 -30 -36
-57 -67 -60 -70 -15 -12 -151 -222 -191 -295 -122 -221 -209 -493 -249 -775
-14 -95 -17 -364 -7 -480 25 -268 135 -634 245 -812 13 -21 23 -40 23 -43 0
-12 102 -169 160 -245 161 -215 369 -406 600 -550 93 -58 296 -158 374 -185
81 -26 79 -18 25 -145 -27 -63 -53 -124 -59 -135 -5 -11 -95 -222 -201 -470
-105 -247 -193 -452 -195 -454 -6 -7 -268 126 -372 189 -703 424 -1207 1112
-1396 1904 -19 78 -37 164 -42 191 -4 28 -8 55 -9 61 -2 6 -6 36 -9 66 -4 31
-9 66 -12 79 -3 13 -7 139 -9 279 -4 349 21 549 106 870 64 240 176 511 301
729 93 162 237 372 323 471 314 361 592 584 970 781 293 153 576 246 902 299
96 15 111 17 228 25 55 4 101 8 102 9 5 5 293 -2 368 -8z m-87 -1310 c95 -9
128 -15 237 -42 631 -159 1147 -698 1304 -1364 38 -161 49 -267 46 -445 -4
-175 -6 -201 -31 -320 -8 -38 -17 -81 -20 -94 -11 -55 -69 -212 -111 -301
-136 -291 -346 -535 -618 -716 -96 -64 -244 -144 -267 -144 -7 0 -28 37 -47
83 -37 89 -61 146 -126 292 -17 40 -336 787 -342 803 -3 7 3 12 14 12 55 0
215 71 303 133 453 324 502 964 103 1349 -159 153 -371 239 -593 240 -187 1
-348 -46 -495 -145 -171 -115 -301 -294 -356 -489 -113 -402 65 -812 441
-1015 54 -29 182 -76 208 -76 7 0 11 -4 10 -9 -28 -82 -506 -1178 -514 -1178
-20 0 -197 95 -277 149 -293 198 -520 477 -650 802 -40 100 -81 239 -96 324
-5 33 -13 76 -16 95 -11 60 -14 361 -4 430 26 187 53 297 106 440 169 456 509
832 931 1032 181 86 350 134 547 154 33 4 61 7 62 8 4 3 194 -3 251 -8z m27
-1431 c241 -116 324 -406 180 -630 -36 -57 -101 -117 -156 -145 l-36 -19 -53
122 c-29 67 -62 145 -75 172 -12 28 -25 60 -29 73 -4 12 -10 22 -14 22 -4 0
-45 -88 -91 -195 l-83 -194 -40 20 c-123 63 -216 212 -223 356 -5 129 39 244
129 335 89 90 197 130 333 124 70 -4 94 -10 158 -41z"/>
</g>
</svg>
